<?xml version="1.0" ?><svg id="katman_1" style="enable-background:new 0 0 512 512;" version="1.1" viewBox="0 0 512 512" xml:space="preserve" xmlns="http://www.w3.org/2000/svg" xmlns:xlink="http://www.w3.org/1999/xlink"><style type="text/css">
	.st0{fill:#3997D3;}
	.st1{fill:#2981BA;}
	.st2{fill:#FFFFFF;}
</style><g><circle class="st0" cx="256" cy="256" r="250"/></g><path class="st1" d="M505.9,263.7c-0.2-0.2-0.4-0.5-0.6-0.7c-48.5-48.5-97.1-97-145.6-145.6c-2.6-2.6-5.4-3.4-8.9-2.7  c-8.7,1.7-17.4,3.4-26.1,5.1c-13.8,2.6-27.6,5.3-41.4,7.9c-14.6,2.8-29.2,5.6-43.7,8.4c-14.6,2.8-29.2,5.6-43.7,8.4  c-1.6,0.3-2.6,0-3.8-1.2c-9-9.1-18.1-18.1-27.1-27.2c-1.5-1.5-3-3.1-4.6-4.5c-5.1-4.5-11-6.2-17.6-4.6c-7.3,1.8-12.1,6.4-14.1,13.6  c-2,7.1-0.2,13.4,5,18.8c2.9,3,5.9,5.9,8.8,8.8c0.6,0.6,1.1,1.3,1.3,2.2c2.4,12.6,4.8,25.2,7.2,37.9c2.8,14.5,5.5,29,8.3,43.5  c3.1,16.2,6.3,32.4,9.4,48.7c3,15.4,5.9,30.9,8.9,46.3c2.8,14.7,5.6,29.3,8.5,44c2.2,11.3,4.4,22.6,6.5,33.9c0.2,1.1,0.7,2,1.5,2.8  c15.2,15.1,30.3,30.3,45.5,45.5c16.6,16.6,33.3,33.2,49.9,49.9c0.3,0.3,0.6,0.5,0.9,0.7C409.7,487.3,502.2,386.6,505.9,263.7z"/><path class="st2" d="M382.2,244.4l-55.6-50.9l33-68.2c1.3-2.7,1-6-0.9-8.4c-1.8-2.4-4.9-3.6-7.9-3l-191.5,36.8l-1.9-10  c5.9-4.2,9.2-11.6,7.7-19.2c-2-10.4-12.1-17.2-22.5-15.2c-10.4,2-17.2,12.1-15.2,22.5c1.5,7.6,7.2,13.3,14.3,15L192.2,406l15.7-3  l-20.8-108.1l191.2-36.7c3-0.6,5.4-2.8,6.2-5.7C385.3,249.6,384.4,246.5,382.2,244.4z M147.3,129.9c-2.6,0.5-5.1-1.2-5.6-3.8  c-0.5-2.6,1.2-5.1,3.8-5.6c2.6-0.5,5.1,1.2,5.6,3.8C151.6,126.9,149.9,129.4,147.3,129.9z M184.1,279.2L184.1,279.2l-5-26.1l25-4.8  c4.3-0.8,7.2-5,6.3-9.4c-0.8-4.3-5-7.2-9.4-6.3l-25,4.8l-5.6-29.1l39.2-7.5c4.3-0.8,7.2-5,6.3-9.4c-0.8-4.3-5-7.2-9.4-6.3l-39.2,7.5  l-5-26.1l175.8-33.8l-28.7,59.2c-1.5,3.2-0.8,7,1.8,9.4l48.2,44.1L184.1,279.2z"/></svg>